<svg class="svg-icon" style="width: 1em; height: 1em;vertical-align: middle;fill: #6e6e6e;overflow: hidden;" viewBox="0 0 1024 1024" version="1.1" xmlns="http://www.w3.org/2000/svg"><path d="M245.76 443.733333h88.746667L290.133333 310.613333z" fill="" /><path d="M750.933333 829.44L460.8 10.24c-3.413333-6.826667-10.24-10.24-17.066667-10.24H102.4C44.373333 0 0 44.373333 0 102.4v648.533333c0 58.026667 44.373333 102.4 102.4 102.4h631.466667c6.826667 0 10.24-3.413333 13.653333-6.826666s3.413333-10.24 3.413333-17.066667zM399.36 580.266667h-6.826667c-6.826667 0-13.653333-3.413333-17.066666-10.24l-30.72-92.16H235.52L204.8 570.026667c-3.413333 10.24-13.653333 13.653333-20.48 10.24-10.24-3.413333-13.653333-13.653333-10.24-20.48l102.4-307.2c3.413333-13.653333 27.306667-13.653333 30.72 0l102.4 307.2c3.413333 6.826667-3.413333 17.066667-10.24 20.48z" fill="" /><path d="M727.04 669.013333l30.72-30.72c-34.133333-37.546667-64.853333-78.506667-75.093333-102.4-3.413333-10.24 0-17.066667 10.24-23.893333 10.24-3.413333 17.066667 0 23.893333 10.24 6.826667 20.48 34.133333 54.613333 64.853333 88.746667 37.546667-47.786667 61.44-102.4 71.68-133.12h-191.146666l64.853333 191.146666z" fill="" /><path d="M921.6 170.666667H576.853333c-6.826667 0-10.24 3.413333-13.653333 6.826666s-3.413333 10.24-3.413333 17.066667L648.533333 443.733333h102.4v-51.2c0-10.24 6.826667-17.066667 17.066667-17.066666s17.066667 6.826667 17.066667 17.066666V443.733333h153.6c10.24 0 17.066667 6.826667 17.066666 17.066667s-6.826667 17.066667-17.066666 17.066667h-54.613334c-6.826667 40.96-37.546667 105.813333-81.92 160.426666 30.72 34.133333 61.44 64.853333 78.506667 81.92 6.826667 6.826667 6.826667 17.066667 0 23.893334 0 6.826667-6.826667 6.826667-10.24 6.826666s-10.24 0-13.653333-3.413333-37.546667-37.546667-78.506667-81.92c-13.653333 13.653333-27.306667 27.306667-40.96 37.546667l40.96 116.053333c6.826667 17.066667 3.413333 34.133333-6.826667 47.786667s-20.48 20.48-37.546666 20.48h-211.626667c-6.826667 0-10.24 3.413333-13.653333 6.826666s-3.413333 10.24-3.413334 17.066667l40.96 102.4c3.413333 6.826667 10.24 10.24 17.066667 10.24H921.6c58.026667 0 102.4-44.373333 102.4-102.4V273.066667c0-58.026667-44.373333-102.4-102.4-102.4z" fill="" /></svg>