<svg class="svg-icon" style="width: 1em; height: 1em;vertical-align: middle;fill: #6e6e6e;overflow: hidden;" viewBox="0 0 1024 1024" version="1.1" xmlns="http://www.w3.org/2000/svg"><path d="M853.333333 213.333333C900.266667 213.333333 938.666667 251.733333 938.666667 298.666667L938.666667 725.333333C938.666667 772.266667 900.266667 810.666667 853.333333 810.666667L170.666667 810.666667C123.306667 810.666667 85.333333 772.266667 85.333333 725.333333L85.333333 298.666667C85.333333 251.306667 123.306667 213.333333 170.666667 213.333333L853.333333 213.333333M768 725.333333 768 640 533.333333 640 448 725.333333 768 725.333333M256 725.333333 362.666667 725.333333 654.933333 431.786667C663.466667 423.68 663.466667 410.026667 654.933333 401.493333L579.84 326.4C571.306667 317.866667 557.653333 317.866667 549.546667 326.4L256 619.946667 256 725.333333Z"  /></svg>