<?xml version="1.0" encoding="utf-8"?>
<!-- Generator: Adobe Illustrator 19.0.0, SVG Export Plug-In . SVG Version: 6.00 Build 0)  -->
<svg version="1.1" id="Layer_1" xmlns="http://www.w3.org/2000/svg" xmlns:xlink="http://www.w3.org/1999/xlink" x="0px" y="0px"
	 viewBox="131 -131 512 512" style="enable-background:new 131 -131 512 512;" xml:space="preserve">
<g id="XMLID_6_">
	<path fill="#6E6E6E" id="XMLID_11_" d="M567.9,49.9V-55.9H462.1L387-131l-75.1,75.1H206.1V49.9L131,125l75.1,75.1v105.8h105.8L387,381l75.1-75.1
		h105.8V200.1L643,125L567.9,49.9z M387,260.9c-75.1,0-135.9-60.8-135.9-135.9S311.9-10.9,387-10.9S522.9,49.9,522.9,125
		S462.1,260.9,387,260.9z M387,34.2c-50.1,0-90.8,40.8-90.8,90.8s40.8,90.8,90.8,90.8s90.8-40.8,90.8-90.8S437.1,34.2,387,34.2z"/>
</g>
</svg>
