<svg version="1.1" xmlns="http://www.w3.org/2000/svg" x="0" y="0" viewBox="0 0 150 150" xml:space="preserve">
  <path d="M75 150.003c-41.345 0-75-33.655-75-75.001s33.655-75 75-75 75.001 33.654 75.001 75-33.655 75-75 75m0-129.998c-30.357 0-54.998 24.641-54.998 54.998S44.644 130 75 130s54.998-24.641 54.998-54.998S105.357 20.004 75 20.004" fill="#6e6e6e"/>
  <path d="M75 134.992c-33.108 0-60.007-26.9-60.007-59.99s26.9-60.008 60.008-60.008 60.007 26.9 60.007 60.008-26.917 59.99-60.007 59.99M75 27.5c-26.194 0-47.502 21.308-47.502 47.502s21.308 47.502 47.502 47.502 47.501-21.308 47.501-47.502S101.194 27.5 75.001 27.5" fill="#404040"/>
</svg>
