<svg xmlns="http://www.w3.org/2000/svg" enable-background="new 0 0 24 24" viewBox="0 0 24 24"><polygon fill="#4CAF50" points="7.471 17.618 0 24 23.207 24 7.471 17.618"/><polygon fill="#3F51B5" points=".068 23.268 12.827 12.365 11.769 0 .068 23.268"/><polygon fill="#429846" points="7.471 17.618 0 24 7.5 24 7.5 17.63 7.471 17.618"/><polygon fill="#37479E" points="7.5 8.489 .068 23.268 7.5 16.917 7.5 8.489"/><polygon fill="#CFD8DC" points="12.893 12.964 7.868 17.286 13.488 19.546 12.893 12.964"/><polygon fill="#B4BCC0" points="11.459 14.198 7.868 17.286 11.459 18.73 11.459 14.198"/><polygon fill="#F44336" points="24 23.801 12.298 .399 14.017 19.745 24 23.801"/><polygon fill="#D43A2F" points="12.298 .399 14.017 19.745 16.678 20.826 16.678 9.158 12.298 .399"/></svg>