<?xml version="1.0" encoding="UTF-8"?>
<!DOCTYPE svg PUBLIC "-//W3C//DTD SVG 1.1//EN" "http://www.w3.org/Graphics/SVG/1.1/DTD/svg11.dtd">
<svg version="1.1" xmlns="http://www.w3.org/2000/svg" xmlns:xlink="http://www.w3.org/1999/xlink" x="0" y="0" width="392" height="569" viewBox="0, 0, 392, 569">
  <g id="Layer_1">
    <path d="M212.698,565.511 C310.188,565.511 389.7,524.076 389.7,473.274 C389.7,422.469 310.188,381.032 212.698,381.032 C115.209,381.032 35.696,422.469 35.696,473.274 C35.696,524.076 115.209,565.511 212.698,565.511" fill="#ADADA9"/>
    <path d="M22.247,170.194 C33.491,151.304 38.975,130.902 38.975,108.309 L38.975,74.379 L305.286,74.379 L305.286,108.309 C305.286,130.902 310.771,151.304 322.013,170.194 C335.947,193.605 342.261,216.105 342.261,242.374 L342.261,454.098 C342.261,604.699 2,604.7 2,454.098 L2,242.374 C2,216.105 8.312,193.605 22.247,170.194" fill="#D0D2C0"/>
    <path d="M313.248,509.011 C295.524,539.36 239.308,561.539 172.689,561.539 C106.071,561.539 49.855,539.36 32.131,509.011 C58.226,532.649 111.371,548.833 172.689,548.833 C234.01,548.833 287.153,532.649 313.248,509.011" fill="#E9EBD7"/>
    <path d="M283.134,96.532 L61.127,96.532 L61.127,108.309 C61.127,134.559 54.712,158.963 41.283,181.525 C29.664,201.046 24.152,219.662 24.152,242.374 L24.152,454.098 C24.152,575.028 320.108,575.025 320.108,454.098 L320.108,242.374 C320.108,219.662 314.597,201.046 302.979,181.525 C289.548,158.963 283.134,134.559 283.134,108.309 L283.134,96.532" fill="#E9EBD7"/>
    <path d="M68.574,196.195 C76.343,178.546 80.131,159.481 80.131,138.371 L80.131,106.667 L142.27,106.667 L142.27,134.216 C142.27,155.77 141.042,175.233 138.521,193.252 C135.396,215.584 133.979,237.048 133.979,262.107 L133.979,464.078 C133.979,519.886 145.495,554.005 159.577,566.452 C105.275,561.795 54.585,526.812 54.585,461.47 L54.585,263.638 C54.585,239.093 58.946,218.069 68.574,196.195" fill="#F6F6E6"/>
    <path d="M24.152,242.374 L24.152,454.098 C24.152,575.028 320.108,575.025 320.108,454.098 L320.108,242.374 L24.152,242.374" fill="#A0A93C"/>
    <path d="M247.644,394.548 C208.871,460.035 148.4,457.585 195.099,373.744 C203.288,359.041 237.742,291.128 258.741,317.215 C273.229,335.214 258.125,376.049 247.644,394.548" fill="#7B8438"/>
    <path d="M230.205,380.916 C224.927,389.823 195.489,429.785 185.894,417.184 C177.919,406.708 213.257,347.448 220.967,335.358 C247.398,293.904 250.62,333.996 237.925,365.187 C235.605,370.886 233.211,375.567 230.205,380.916" fill="#8D983B"/>
    <path d="M224.179,369.637 C207.247,396.383 191.166,399.156 208.8,361.275 C233.858,307.439 242.709,334.802 226.683,364.931 L224.179,369.637" fill="#A3AC3F"/>
    <path d="M218.463,402.929 C212.063,409.263 212.79,394.36 218.424,398.96 C219.748,400.041 219.349,401.706 218.463,402.929 z M235.363,377.604 C229.217,384.732 229.112,368.33 235.083,373.211 C236.502,374.367 236.222,376.192 235.363,377.604 z M223.497,366.777 C217.665,373.677 217.071,357.647 223.119,362.436 C224.524,363.548 224.324,365.366 223.497,366.777 z M214.638,382.04 C208.684,388.212 210.122,373.282 214.778,378.725 C215.672,379.769 215.345,381.011 214.638,382.04 z M200.819,395.092 C193.466,401.859 194.288,385.474 200.805,390.705 C202.314,391.918 201.873,393.733 200.819,395.092 z M244.965,355.768 C237.801,365.144 234.917,344.328 243.643,349.073 C246.151,350.439 246.177,353.445 244.965,355.768 z M241.204,332.047 C239.898,340.838 251.5,332.24 244.456,329.917 C242.795,329.369 241.683,330.569 241.204,332.047 z M198.26,420.561 C191.067,427.18 191.773,411.108 198.222,416.268 C199.705,417.452 199.294,419.225 198.26,420.561" fill="#7B8438"/>
    <path d="M256.217,337.87 C250.835,345.09 250.377,327.959 255.919,334.036 C256.947,335.163 256.86,336.584 256.217,337.87" fill="#626A30"/>
    <path d="M254.224,356.358 C249.942,361.878 251.822,348.471 254.401,354.403 C254.708,355.108 254.565,355.714 254.224,356.358" fill="#626A30"/>
    <path d="M249.929,382.025 C243.141,389.937 242.758,371.601 249.568,377.049 C251.171,378.331 250.888,380.431 249.929,382.025" fill="#626A30"/>
    <path d="M232.546,399.855 C228.225,404.409 231,393.212 232.861,398.229 C233.088,398.838 232.887,399.348 232.546,399.855" fill="#626A30"/>
    <path d="M205.307,430.67 C199.017,436.759 200.501,421.722 205.449,427.351 C206.373,428.402 206.056,429.64 205.307,430.67" fill="#626A30"/>
    <path d="M214.908,416.681 C210.548,420.909 214.285,410.374 215.262,415.499 C215.353,415.978 215.18,416.312 214.908,416.681" fill="#626A30"/>
    <path d="M172.131,173.847 C253.856,173.847 320.108,204.527 320.108,242.374 C320.108,280.219 253.856,310.9 172.131,310.9 C90.405,310.9 24.152,280.219 24.152,242.374 C24.152,204.527 90.405,173.847 172.131,173.847" fill="#B3BD4A"/>
    <path d="M75.455,524.737 C95.565,534.655 119.908,540.894 145.346,543.451 C138.504,525.509 133.979,499.054 133.979,464.078 L133.979,262.107 C133.979,255.293 134.084,248.746 134.299,242.374 L55.789,242.374 C54.979,249.224 54.585,256.272 54.585,263.638 L54.585,461.47 C54.585,487.307 62.515,508.392 75.455,524.737" fill="#B6C04B"/>
    <path d="M133.979,308.595 C101.942,304.649 74.185,295.848 54.585,283.999 L54.585,263.638 C54.585,239.093 58.946,218.069 68.574,196.195 C69.073,195.061 69.557,193.921 70.022,192.776 C89.308,184.259 113.556,178.134 140.552,175.416 C140.008,181.524 139.33,187.463 138.521,193.252 C135.396,215.584 133.979,237.048 133.979,262.107 L133.979,308.595" fill="#CDD865"/>
    <path d="M172.131,34.695 C232.763,34.695 285.237,50.855 310.59,74.379 L326.793,74.379 L326.793,106.318 C326.793,145.873 257.548,177.94 172.131,177.94 C86.713,177.94 17.468,145.873 17.468,106.318 L17.468,74.379 L33.671,74.379 C59.024,50.855 111.498,34.695 172.131,34.695" fill="#7B913C"/>
    <path d="M172.132,146.002 C257.316,146.002 326.793,113.828 326.793,74.379 C326.793,34.931 257.316,2.756 172.132,2.756 C86.946,2.756 17.468,34.931 17.468,74.379 C17.468,113.828 86.946,146.002 172.132,146.002" fill="#8CA43D"/>
    <path d="M172.132,135.768 C251.229,135.768 315.745,105.892 315.745,69.262 C315.745,32.632 251.229,2.756 172.132,2.756 C93.031,2.756 28.518,32.632 28.518,69.262 C28.518,105.892 93.031,135.768 172.132,135.768" fill="#9FB83B"/>
    <path d="M155.407,108.987 C213.495,108.987 260.872,87.047 260.872,60.147 C260.872,33.247 213.495,11.306 155.407,11.306 C97.319,11.306 49.942,33.247 49.942,60.147 C49.942,87.047 97.319,108.987 155.407,108.987" fill="#ACC739"/>
    <path d="M145.083,78.307 C178.438,78.307 205.646,65.708 205.646,50.261 C205.646,34.814 178.438,22.215 145.083,22.215 C111.727,22.215 84.521,34.814 84.521,50.261 C84.521,65.708 111.727,78.307 145.083,78.307" fill="#B8D03A"/>
    <path d="M84.672,440.176 C178.167,516.65 266.966,480.027 151.647,380.518 C131.426,363.066 43.042,280.622 25.966,330.955 C14.184,365.683 58.96,418.316 84.672,440.176" fill="#7B8438"/>
    <path d="M84.672,440.176 C101.687,454.093 118.54,464.248 134.04,470.974 C134,468.713 133.979,466.416 133.979,464.078 L133.979,365.129 C112.374,346.703 79.062,320.507 54.585,315.678 L54.585,408.843 C64.825,421.593 75.866,432.689 84.672,440.176" fill="#8D983B"/>
    <path d="M103.231,410.347 C115.954,420.745 181.621,464.263 189.054,440.246 C195.231,420.283 110.246,351.222 92.164,337.402 C30.164,290.023 47.22,351.54 83.148,391.11 C89.712,398.339 95.834,404.014 103.231,410.347" fill="#8D983B"/>
    <path d="M103.231,410.347 C107.997,414.243 120.194,422.787 133.979,430.687 L133.979,372.153 C116.132,356.335 99.151,342.743 92.164,337.402 C71.872,321.896 60.051,318.056 54.585,321.292 L54.585,346.189 C59.85,359.975 70.288,376.947 83.148,391.11 C89.712,398.339 95.834,404.014 103.231,410.347" fill="#A3AC3F"/>
    <path d="M106.064,390.249 C145.885,420.883 171.365,416.251 124.427,369.4 C57.725,302.818 59.45,348.43 99.766,384.6 L106.064,390.249" fill="#A3AC3F"/>
    <path d="M106.064,390.249 C116.788,398.5 126.47,404.188 133.979,407.186 L133.979,379.443 C131.204,376.341 128.032,372.996 124.427,369.4 C57.725,302.818 59.45,348.43 99.766,384.6 L106.064,390.249" fill="#B6C04B"/>
    <path d="M132.734,436.759 C145.726,442.706 136.519,420.893 130.628,430.821 C129.244,433.153 130.747,435.416 132.734,436.759 z M93.736,408.223 C91.687,406.584 90.275,404.02 91.758,401.522 C97.997,390.991 106.784,415.495 93.736,408.223 z M105.521,385.613 C117.977,392.719 110.122,368.502 103.718,378.938 C102.229,381.361 103.517,383.964 105.521,385.613 z M127.047,403.537 C139.289,409.487 129.002,388.019 125.031,398.67 C124.27,400.714 125.435,402.386 127.047,403.537 z M154.759,415.455 C169.41,421.53 159.254,397.558 152.393,408.908 C150.802,411.542 152.448,414.005 154.759,415.455 z M67.52,380.908 C83.312,390.98 76.258,358.38 65.841,370.211 C62.844,373.611 64.448,378.109 67.52,380.908 z M60.192,343.501 C66.932,355.893 44.951,349.403 54.184,342.1 C56.361,340.377 58.673,341.56 60.192,343.501 z M172.461,452.022 C186.79,457.965 176.976,434.396 170.175,445.603 C168.614,448.177 170.192,450.594 172.461,452.022" fill="#7B8438"/>
    <path d="M40.99,360.366 C52.947,368.194 44.292,342.409 39.345,354.489 C38.427,356.73 39.329,358.799 40.99,360.366" fill="#626A30"/>
    <path d="M54.04,386.839 C63.431,392.732 53.32,373.771 52.709,384.022 C52.637,385.237 53.178,386.064 54.04,386.839" fill="#626A30"/>
    <path d="M74.437,422.752 C88.867,430.846 79.441,403.305 72.262,415.14 C70.571,417.924 72.138,420.9 74.437,422.752" fill="#626A30"/>
    <path d="M110.068,439.852 C118.991,444.287 108.749,429.11 108.711,437.601 C108.706,438.633 109.283,439.284 110.068,439.852" fill="#626A30"/>
    <path d="M167.472,470.936 C180.166,476.581 169.756,454.974 165.446,466.064 C164.644,468.133 165.792,469.806 167.472,470.936" fill="#626A30"/>
    <path d="M145.529,455.319 C154.336,459.243 143.021,445.576 144.359,453.749 C144.485,454.511 144.925,454.915 145.529,455.319" fill="#626A30"/>
    <path d="M260.561,487.768 C167.063,564.24 78.267,527.618 193.583,428.11 C213.807,410.657 302.19,328.213 319.266,378.547 C331.049,413.274 286.272,465.905 260.561,487.768" fill="#7B8438"/>
    <path d="M242.001,457.94 C229.278,468.338 163.61,511.856 156.179,487.837 C150.003,467.876 234.984,398.815 253.069,384.995 C315.068,337.615 298.013,399.133 262.084,438.702 C255.519,445.932 249.398,451.604 242.001,457.94" fill="#8D983B"/>
    <path d="M239.168,437.843 C199.348,468.475 173.867,463.845 220.804,416.992 C287.508,350.408 285.782,396.022 245.467,432.193 L239.168,437.843" fill="#A3AC3F"/>
    <path d="M212.496,484.351 C199.507,490.299 208.714,468.486 214.604,478.412 C215.989,480.744 214.485,483.01 212.496,484.351 z M251.496,455.813 C253.546,454.175 254.955,451.61 253.475,449.113 C247.235,438.584 238.448,463.086 251.496,455.813 z M239.712,433.206 C227.256,440.312 235.11,416.093 241.515,426.53 C243.003,428.955 241.714,431.556 239.712,433.206 z M218.186,451.127 C205.943,457.08 216.229,435.61 220.201,446.261 C220.965,448.305 219.798,449.978 218.186,451.127 z M190.475,463.046 C175.82,469.123 185.979,445.15 192.841,456.501 C194.433,459.133 192.784,461.598 190.475,463.046 z M277.712,428.502 C261.923,438.571 268.975,405.974 279.392,417.802 C282.388,421.205 280.784,425.701 277.712,428.502 z M285.039,391.093 C278.301,403.486 300.282,396.995 291.049,389.693 C288.87,387.97 286.56,389.152 285.039,391.093 z M172.773,499.614 C158.443,505.559 168.257,481.988 175.056,493.195 C176.619,495.77 175.04,498.187 172.773,499.614" fill="#7B8438"/>
    <path d="M304.242,407.959 C292.285,415.786 300.939,390.002 305.889,402.082 C306.806,404.322 305.904,406.392 304.242,407.959" fill="#626A30"/>
    <path d="M291.192,434.429 C281.8,440.323 291.913,421.362 292.523,431.613 C292.596,432.83 292.054,433.655 291.192,434.429" fill="#626A30"/>
    <path d="M270.796,470.347 C256.365,478.439 265.791,450.898 272.971,462.731 C274.661,465.517 273.093,468.49 270.796,470.347" fill="#626A30"/>
    <path d="M235.164,487.444 C226.241,491.879 236.481,476.7 236.521,485.192 C236.526,486.226 235.948,486.877 235.164,487.444" fill="#626A30"/>
    <path d="M177.761,518.527 C165.066,524.173 175.475,502.567 179.785,513.656 C180.589,515.726 179.44,517.401 177.761,518.527" fill="#626A30"/>
    <path d="M199.702,502.91 C190.896,506.834 202.212,493.168 200.873,501.341 C200.749,502.102 200.308,502.508 199.702,502.91" fill="#626A30"/>
    <path d="M221.586,249.738 C247.608,249.738 268.831,236.505 268.831,220.28 C268.831,204.055 247.608,190.821 221.586,190.821 C195.565,190.821 174.341,204.055 174.341,220.28 C174.341,236.505 195.565,249.738 221.586,249.738" fill="#EDEFAD"/>
    <path d="M251.015,288.921 C265.588,288.921 277.474,281.509 277.474,272.423 C277.474,263.337 265.588,255.925 251.015,255.925 C236.442,255.925 224.558,263.337 224.558,272.423 C224.558,281.509 236.442,288.921 251.015,288.921" fill="#EDEFAD"/>
  </g>
</svg>
